Genre:Action | Adventure | Sci-Fi | Thriller
Language:English
IMDb:http://www.imdb.com/title/tt1424381/
Source:DVD9/IMAGINE
Sample:Yes

General
Complete name :Predators.2010.R5.LiNE.XviD.Feel-Free
Format : AVI
Format/Info : Audio Video Interleave
File size : 996 MiB
Duration : 1h 42mn
Overall bit rate : 1 359 Kbps
Video #0
Muxing mode : Packed bitstream
Codec ID : XVID
Codec ID/Hint : XviD
Duration : 1h 42mn
Bit rate : 1 221 Kbps
Width : 688 pixels
Height : 288 pixels
Display aspect ratio : 2.35:1
Frame rate : 25.000 fps
Resolution : 24 bits
Colorimetry : 4:2:0
Scan type : Progressive
Bits/(Pixel*Frame) : 0.247
Stream size : 895 MiB (90%)
Writing library : XviD 1.2.1 (UTC 2008-12-04)
Audio #1
ID : 1
Format : MPEG Audio
Format version : Version 1
Format profile : Layer 3
Codec ID : 55
Codec ID/Hint : MP3
Duration : 1h 42mn
Bit rate mode : Constant
Bit rate : 128 Kbps
Channel(s) : 2 channels
Sampling rate : 44.1 KHz
Resolution : 16 bits
Stream size : 93.9 MiB (9%)
Alignment : Split accross interleaves
Interleave, duration : 40 ms (1.00 video frame)
Interleave, preload duration : 500 ms
Plot
A group of elite warriors are hunted by members of a merciless alien race known as Predators